<?xml version="1.0" standalone="no"?>
<!DOCTYPE svg PUBLIC "-//W3C//DTD SVG 20010904//EN"
 "http://www.w3.org/TR/2001/REC-SVG-20010904/DTD/svg10.dtd">
<svg version="1.0" xmlns="http://www.w3.org/2000/svg"
 width="410.000000pt" height="410.000000pt" viewBox="0 0 410.000000 410.000000"
 preserveAspectRatio="xMidYMid meet">
<metadata>
Created by potrace 1.14, written by Peter Selinger 2001-2017
</metadata>
<g transform="translate(0.000000,410.000000) scale(0.100000,-0.100000)"
fill="#000000" stroke="none">
<path d="M3350 3523 c-283 -52 -518 -98 -522 -102 -9 -8 -98 -313 -98 -334 0
-9 10 -23 23 -31 20 -13 43 -11 227 25 113 22 215 37 227 34 13 -3 25 -15 28
-28 5 -16 -117 -266 -459 -946 -256 -508 -470 -927 -476 -931 -13 -8 -200 -33
-206 -27 -2 2 21 125 51 272 51 248 54 270 40 291 -9 13 -24 24 -34 24 -10 0
-70 -16 -134 -35 -130 -39 -162 -43 -176 -17 -6 12 9 105 50 311 60 301 62
323 22 333 -10 3 -101 -15 -203 -38 -102 -24 -201 -43 -220 -41 -32 2 -35 5
-39 37 -1 19 10 265 25 547 15 282 26 515 22 518 -5 6 -1121 205 -1148 205
-20 0 -210 -138 -210 -153 0 -12 -11 7 513 -917 989 -1742 1330 -2337 1353
-2360 34 -34 95 -34 128 0 30 31 1865 3316 1873 3351 6 31 -19 84 -46 99 -11
5 -37 10 -58 9 -21 -1 -270 -44 -553 -96z"/>
</g>
</svg>
